<?xml version="1.0" encoding="UTF-8"?>
<svg id="a" xmlns="http://www.w3.org/2000/svg" version="1.1" viewBox="0 0 207.28 59.77">
  <!-- Generator: Adobe Illustrator 30.4.0, SVG Export Plug-In . SVG Version: 2.1.4 Build 226)  -->
  <defs>
    <style>
      .st0 {
        fill: #87ad26;
      }

      .st1 {
        fill: #999;
      }
    </style>
  </defs>
  <path class="st0" d="M90.57,10.66c-.14.24-.26.48-.36.74-.77,1.87-1.39,3.79-1.85,5.79-.23,1.27-.45,2.81-.63,4.6-.16,1.62-.23,2.71-.22,3.28.06,2.16.13,3.65.23,4.48.15,1.23.69,2.23,1.61,3.01.16.13.35.2.57.2.86-.09,1.3-.63,1.31-1.62,0-.07-.01-.13-.02-.2.66.6,1.42,1.02,2.27,1.26.09.02.44.1,1.04.26.68.14,1.31.2,1.87.18.59,0,1.1-.08,1.53-.21.14-.04.52-.17,1.12-.41,1.93-.74,3.07-2.1,3.43-4.09.02-.11.04-.22.06-.33.39.26.79.51,1.2.75,1.17.73,2.36.86,3.55.39,1.52-.64,2.3-1.78,2.33-3.41.01-.14.01-.29.02-.45.01-.87.04-1.73.08-2.59.53.3.98.73,1.35,1.28.35.5.67,1.03.96,1.58.28.54.7.86,1.26.97.09-.02.16-.07.21-.12.73-.82,1.36-1.74,1.88-2.75.03-.08.07-.15.11-.22.16.11.32.22.49.34,1.03.75,2.01,1.64,2.94,2.66.26.28.53.57.8.85.89.96,1.44,1.53,1.65,1.71-.32.43-.77,1-1.34,1.7-.45.59-.82,1.13-1.11,1.63-.47.82-.92,1.67-1.35,2.54-.86,1.71-1.21,3.53-1.06,5.45.12,1.68.79,3.13,2,4.35.22.23.84.54,1.86.94,1.86.71,3.69.47,5.49-.71.5-.33.87-.74,1.1-1.23.59-1.06.91-1.83.98-2.31.15-1.15.14-2.27-.02-3.37-.15-1.1-.46-2.16-.91-3.18-.64-1.4-1.44-2.68-2.42-3.86-.49-.59-.98-1.19-1.47-1.81-.07-.09-.14-.16-.21-.23,1.27-1.68,2.72-3.17,4.36-4.46.02-.01.08-.02.08-.02,0,0,1.21.74,2.17,1.49s1.97,1.97,2.8,3.07c.68.92,1.12,1.93,1.33,3.03.07.38,0,.72-.22,1.02-.63.89-1.47,1.17-2.51.82-.31-.1-.61-.25-.9-.44-.98-.63-1.64-1.49-1.98-2.58-.08-.25-.11-.51-.09-.77.06-.57.15-1.13.27-1.69,0-.02,0-.04-.04-.05-.22-.03-.42.03-.6.18-.22.22-.38.48-.5.8-.29.85-.27,1.71.07,2.58.56,1.47,1.6,2.5,3.11,3.07.18.07.36.12.55.14,1.18.19,1.86.1,2.87-.52.56-.36,1.14-1.22,1.11-2.39-.03-1.74-.45-2.55-1.49-3.89-.62-.8-1.26-1.54-1.91-2.24-.79-.81-1.68-1.54-2.67-2.18-.18-.13-.37-.24-.58-.34.16-.14.25-.27.77-.57s1.91-1.05,2.67-1.84c.45-.48.79-1.06,1.01-1.74.23-.72.19-1.19-.12-1.43-.35-.28-.92-.49-1.72-.62-.88-.14-1.66-.11-2.33.11-.6.21-1.17.52-1.71.91-1,.76-2.05,1.44-3.15,2.03-.42.2-.77.49-1.06.88-.24.34-.26.67-.08.99.09.18.23.32.4.42.77.39,1.53.62,2.64.99.14.05.41.15.49.2l-3.8,4.13c-.96-.75-1.85-1.62-2.65-2.6-.72-.89-1.57-1.64-2.52-2.24-.38-.23-.69-.52-.92-.84-.02-.02-.03-.04-.03-.07.68-.75.93-1.61.73-2.59-.01-.03-.02-.06-.04-.08-.1-.05-.2-.1-.29-.14-.22-.03-.43-.02-.62.03-.89.31-1.53.91-1.92,1.8-.01.02-.02.05-.03.08.02.43.2.8.55,1.1.07.07.14.13.2.2l-1.47,2.52c-.2-.27-.36-.54-.49-.8-.39-.81-.91-1.52-1.56-2.13-.33-.29-.65-.6-.96-.93-.43-.45-.93-.58-1.49-.4-.08.05-.15.1-.21.16-1.74-1.12-3.6-1.42-5.58-.89-.21.05-.61.23-1.19.53-.23.12-.49.31-.79.57-.34.29-.59.56-.75.82-.04.07-.08.14-.11.2l-5.24-7.11s.4-.08,1.06-.19c.52-.09.94-.22,1.26-.38.54-.27,1.02-.69,1.44-1.27.41-.56.61-1.03.6-1.42-.01-.33-.12-.69-.34-1.06-.08-.12-.3-.42-.66-.9-.21-.25-.43-.48-.67-.68-1.23-.99-2.59-1.2-4.09-.61-1.18.46-2.12,1.26-2.79,2.39M131.45,18.33c.33.25-.88,2.15-1.95,2.72-.79.43-1.68,1.1-2.45,1.63-1.08-.38-3.37-1.01-3.45-1.2-.07-.19,2.49-1.89,3.82-2.67,0,.01,2.25-1.83,4.03-.48h0ZM91.37,11.92c.08-.19.17-.38.27-.57.23-.48.57-.92,1.02-1.29.4-.36.81-.59,1.22-.71.68-.21,1.23-.28,1.65-.21.46.07.94.32,1.45.76.48.41.81.8,1,1.18.15.27.14.55-.05.83-.65.97-1.57,1.6-2.76,1.87-.53.09-1.04.21-1.52.36-.04.03-.08.08-.1.14-.16.37-.12.74.11,1.1.83,1.29,1.77,2.56,2.82,3.8,1.32,1.58,2.46,3.3,3.42,5.15.16.3.33.6.51.9.49.79.75,1.65.78,2.6.02.59-.21,1.12-.66,1.58-.82.87-1.75,1.47-2.79,1.82-1.08.36-2.1.38-3.05.04-.99-.34-1.77-.69-2.35-1.06-.6-.37-.85-.68-.76-.91.09-.24.35-.5.78-.79.4-.27.76-.44,1.05-.51.21-.05.49-.09.83-.12.3-.04.47-.07.5-.08.07-.03.1-.1.11-.2,0-.11-.05-.2-.16-.26-.12-.07-.41-.08-.87-.03-.51.05-1.02.15-1.53.32-.18.06-.4.16-.68.3l-.35.18c-.04-.82-.05-1.63-.01-2.43.05-.95.03-2.38-.06-4.3-.02-.32,0-.94.05-1.85.12-1.67.31-2.74.57-3.22.17-.33.09-.48-.23-.46-.32.03-.57.15-.76.35-.17.19-.37.71-.59,1.55-.24.91-.36,1.68-.36,2.33.01.74.02,1.51.03,2.28.02,2.86,0,5.71-.05,8.56-.57-.66-.93-1.45-1.06-2.36-.04-.28-.07-.56-.09-.85-.1-1.24-.12-2.49-.08-3.75.16-4.19,1.07-8.2,2.75-12.04M107.79,21.86c.35.34.56,1.04.62,2.12.06,1.01-.02,1.72-.23,2.14-.6,1.23-1.51,1.71-2.71,1.45-1.11-.23-2.04-.71-2.81-1.46-.71-.71-1.24-1.63-1.59-2.74-.04-.12-.02-.31.04-.57.06-.29.16-.53.3-.71.16-.21.62-.51,1.38-.87.8-.38,1.43-.57,1.89-.58.45-.01,1.05.14,1.78.46.65.28,1.1.53,1.33.76M123.16,30.69c1.4,1.49,2.42,3.21,3.03,5.18.28.88.48,1.79.6,2.72.08.58.07,1.18-.04,1.8-.15.94-.56,1.74-1.22,2.42-1.02,1.03-2.22,1.49-3.6,1.38-1.2-.02-2.16-.49-2.89-1.39-.64-.78-1.04-1.67-1.2-2.67-.2-1.33-.11-2.62.29-3.88.15-.5.36-.98.61-1.43.67-1.24,1.18-2.15,1.53-2.74.6-1.01,1.2-1.85,1.82-2.53.03-.03.18.11.44.42.36.42.57.67.63.72Z"/>
  <path class="st0" d="M206.9,23.78c-.2.13-.41.23-.63.3-.74.03-1.46.11-2.16.25-.16-.04-1.41.02-3.77.18-2.6.18-4.08.26-4.45.26-1,0-2.01.08-3.03.24-.73.17-1.44.36-2.12.57-.76.19-1.52.39-2.27.61-.23.06-.47.09-.72.08-1.27.24-2.83.43-4.67.57-1.82.14-3.43.19-4.82.16s-2.45-.21-4.97-.6c-2.61-.41-3.95-.62-4.55-.66-1.47-.1-3.44.02-5.26.26-1.1.15-2.09.86-2.73,1.43l-1.47-1.29c.78-.46,1.43-.8,1.65-1.65.06-.25.03-.47-.1-.67-.65-.94-1.55-1.58-2.72-1.92-.55-.14-1.06-.23-1.54-.28-.57-.04-.98.01-1.23.15-.23.13-.41.29-.54.48,0,0-.36.53.08,1.23.15.3.27.54.67.97.43.46.9.99,1.49,1.55-.07.06-.59.2-1.54.21-.95.01-1.5-.23-2.35-.43-.74-.2-1.43-.54-2.06-1-.62-.44-1.27-.94-1.96-1.5-.71-.58-1.17-1-1.4-1.27-.62-.82-1.12-1.45-1.48-1.9-.67-.8-1.33-1.38-2-1.73-.45-.24-.92-.27-1.4-.08-.33.15-.6.36-.8.62-.87,1.17-1.38,2.5-1.52,3.99-.09.01-.18.04-.26.09-.2.11-.32.26-.37.48-.1.4-.05.86.15,1.36.08.22.12.45.12.68-.04,1.05.09,2.08.4,3.09.04.11.09.2.16.28.36.46.74.51,1.15.15.02-.06.02-.11,0-.17-.17-1.09-.36-2.17-.57-3.26-.08-.41-.1-.79-.08-1.13.08-.95.23-1.87.46-2.76.09-.36.2-.71.32-1.06.12-.36.33-.68.61-.95.18-.18.38-.28.59-.28.77.06,1.44.43,2.01,1.1.4.45,1.24,1.44,2.51,2.99.19.18.39.37.58.55,1.07,1.1,2.31,1.93,3.72,2.51,1.24.5,2.72.73,3.53.71s1.78-.15,2.52-.46l1.8,1.59c-.36.91-.69,1.74-1,2.69-.35,1.12-.58,2.28-.7,3.47-.08.76-.09,1.52-.02,2.27.21,2.49.6,4.92,1.17,7.31.27,1.13.62,2.21,1.05,3.24.23.56.48,1.09.76,1.6.55.94,1.29,1.66,2.24,2.16.77.38,1.55.38,2.35,0,.2-.08.37-.2.51-.35.84-.92,1.34-2.01,1.5-3.27.19-1.61.23-3.22.13-4.84-.02-.21-.06-.48-.12-.8-.1-.42-.16-.69-.17-.8-.29-1.73-.83-3.46-1.62-5.21-.28-.63-1.11-2.05-2.48-4.26,0,0-1.08-2.03-1.93-3.23.72-.82,1.41-1.1,2.43-1.23,1.63-.2,3.45-.46,4.85-.31,2.04.23,4.04.6,5.58.88,1.4.25,2.79.36,4.19.31,1.92.06,3.83.02,5.72-.13,1.01-.08,2.01-.16,3.01-.24,1.32-.19,2.61-.48,3.86-.88,1.48-.46,2.99-.76,4.55-.9,3.36-.15,6.72-.39,10.07-.73.57-.01,1.01-.29,1.33-.83.18-.32.16-.55-.07-.7-.05.07-.12.11-.18.15M160.89,29.49c.62.92,1.14,1.72,1.44,2.25.3.52.68,1.21,1.67,2.82,1,1.73,1.66,3.14,1.98,4.24.38,1.28.63,2.38.75,3.3.11.86.14,1.85.09,2.95,0,.3-.02.6,0,.9.04,1.29-.3,2.48-1.03,3.56-.36.54-.85.72-1.47.54-.84-.27-1.5-.77-1.97-1.52-.85-1.33-1.44-2.78-1.79-4.32-.09-.36-.17-.74-.24-1.11-.05-.24-.1-.48-.15-.71-.45-2.1-.79-4.32-.79-6.46s.55-4.26,1.43-6.32M159.72,24.22c-.25.52-.86.99-1.5,1.23-.11-.03-.83-.63-1.2-1.04-.38-.42-.61-.7-.7-.83-.14-.2-.26-.44-.35-.74,1.37-.04,2.63.47,3.75,1.38Z"/>
  <path class="st1" d="M50.51,4.68l-.43-.05c-1.09,1.74-1.54,3.66-1.37,5.75.15,1.59.17,4.5.29,5.78.14,1.47.31,2.85.29,3.77-.03,1.63-.13,3.26-.28,4.87-.18,1.92-.8,3.7-1.87,5.34-.17.24-.92,1.27-1.85,1.77-.92.5-1.96.68-2.94.06-.73-.47-1.41-.99-2.03-1.58-.46-.42-.79-.95-1-1.57.38-.01.82.01,1.33.05.29.04.56.11.82.2,1.25.43,2.43.37,3.55-.2.98-.52,2.11-1.43,2.52-2.1s.79-1.86.67-2.42c-.17-.76-.77-1.7-1.63-2.51s-2.3-1.4-2.85-1.61c-1.06-.36-2.11-.41-3.17-.17-1.22.23-2.19.87-2.9,1.9-.33.5-.56.97-.68,1.42-.14.49-.19,1.06-.15,1.7.04.78.17,1.54.37,2.29-1.31-.42-2.65-.73-4.02-.92-.22-.01-.44-.02-.65-.02-.74-.13-1.35.06-1.82.57-.08.1-.16.18-.25.25-.52.41-1.13.63-1.84.65-.4.02-.62.03-.67.03-.19-.02-.52-.11-1-.27-.47-.16-.88-.35-1.25-.58-.1-.08-.4-.31-.9-.7-.54-.42-1.03-.92-1.45-1.48-.49-.63-.39-1.22.28-1.75.17.03.34.14.52.32.07.09.14.17.23.25.74.68,1.6,1.13,2.55,1.35.86.13,1.43-.19,1.73-.98.09-.23.16-.47.2-.7.15-.76,0-1.39-.48-1.92-.16-.18-.32-.31-.48-.4-.62-.32-1.32-.47-2.1-.43-.92.12-1.78.44-2.59.97-.1.06-.21.06-.32,0-.42-.11-.85-.26-1.28-.43-.86-.33-1.73-.69-2.62-1.07-.46-.18-.93-.22-1.42-.12-.24.08-.43.23-.55.45-.1.17-.17.33-.2.5-.13.72-.2,2.16-.2,4.3-.07,1.43,0,2.89.18,4.37,0,.12.04.24.1.37l.58.15c.28-.06.42-.23.42-.53-.13-2.18-.18-3.77-.13-4.77.03-.62.09-1.43.18-2.42l.13-1.28,4.1,1.57-.17.77c-.09.58-.07,1.05.07,1.42.23.67.68,1.27,1.33,1.8.6.52,1.21,1.01,1.83,1.45.29.19.6.36.92.5,1.27.57,2.55.68,3.83.33.29-.11.58-.27.88-.48.39-.27.74-.56,1.07-.87,1.79-.02,3.51.29,5.17.95.33.15.58.36.75.65.7,1.27,1.61,2.35,2.74,3.23.24.2.52.39.82.57.92.55,1.88.73,2.89.53,1.07-.23,1.99-.71,2.77-1.43.17-.14.32-.3.45-.47,1.52-1.82,2.42-3.92,2.69-6.3.38-3.39.34-6.79-.12-10.2-.33-2.42-.38-4.84-.13-7.24.03-.29.12-.55.25-.78.45-.81.55-1.62.29-2.45M42.32,21.09c.86,0,1.7.47,2.2.71,1.22.64,2.43,2.26,2.43,2.9,0,1-.79,1.93-1.28,2.29-.81.62-1.38,1.19-2.58,1.17-1.13-.02-3.08-.57-4.47-.51l-.23-.22c-.58-1.47-.51-2.9.22-4.3.41-.81.63-1.21,1.55-1.74.91-.52,2.16-.3,2.16-.3ZM27.43,23.9c-.28-.01-.53-.08-.77-.2-.78-.42-1.54-.83-2.3-1.22.91-.77,1.9-.87,2.95-.32.13.14.23.31.28.48.13.43.08.85-.16,1.26Z"/>
  <path class="st1" d="M8.92,7.28c-.29.06-.54.14-.75.27-1.07.64-1.91,1.48-2.53,2.52-.46.74-.92,1.52-1.4,2.32-.28.46-.52.93-.73,1.42-.26.55-.53,1.1-.82,1.63-.2.38-.37.79-.5,1.23-.06.18-.31.9-.77,2.17-.4,1.13-.63,1.82-.68,2.07-.12.54-.24,1.1-.37,1.65-.13.64-.22,1.07-.25,1.28C.05,24.29.01,24.85,0,25.51c-.02.86.02,1.6.13,2.23.11.72.35,1.57.7,2.54.2.57.58,1.1,1.15,1.58.12.1.26.15.42.15.66,0,1.2.24,1.63.73,1.08,1.22,2.49,1.83,4.22,1.83.35,0,.73-.05,1.12-.15.22-.04.56-.13,1-.25.28-.07.53-.16.77-.28,1.21-.57,2.21-1.43,3-2.58.47-.67.71-1.66.73-2.97,0-1.02-.21-2.08-.65-3.17-.8-1.92-1.53-3.86-2.2-5.82-.18-.55-.46-1.2-.83-1.95-.39-.78-.74-1.38-1.05-1.8-.63-.87-.97-1.32-1-1.35,1.03-.67,1.91-1.47,2.63-2.4.33-.44.57-.96.72-1.53.18-.7.09-1.33-.25-1.88-.13-.2-.27-.36-.42-.47-.84-.61-1.81-.84-2.9-.69M10.91,8.88c.11.12.17.26.18.4.14,1.42-.37,2.52-1.53,3.29-.63.42-1.36.66-2.17.72l-.23.95c.3.16.57.36.8.6,1.03,1.06,1.8,2.27,2.3,3.64.47,1.27.94,2.53,1.42,3.79.27.72.52,1.43.75,2.12.09.17.17.34.23.52.09.23.18.47.28.7.48,1.17.65,2.39.52,3.65-.02.22-.08.44-.18.65-1.07,2.19-2.7,3.32-5.5,3.3-.79-.18-1.27-.32-1.43-.42-.63-.43-1.15-.97-1.53-1.62.16-.49.33-.99.53-1.52.13-.33.24-.68.33-1.03.35-1.28.45-2.58.32-3.92-.22-2.19-.29-4.37-.22-6.55,0-.41-.18-.66-.58-.73-.33.02-.57.2-.7.52-.17.41-.23.82-.18,1.23.08.82.16,1.64.23,2.47.1,1.13.13,2.18.1,3.15-.03,1.2-.07,2-.12,2.38-.11,1.17-.32,2.07-.63,2.72-.14-.12-.25-.3-.32-.53-.04-.17-.09-.48-.13-.93-.04-.42-.02-.87.07-1.33.09-.5.23-.88.43-1.13l-.17-.37c-.14,0-.27.02-.38.07-.42.17-.7.46-.82.87-.42,1.39-.4,2.76.07,4.12-1.02-1.21-1.5-2.61-1.43-4.18.02-1.22.07-2.14.13-2.75.1-1,.38-2.19.83-3.57.92-2.78,1.85-5,2.77-6.65.63-1.13,1.52-2.39,2.67-3.79.51-.62,1.13-1.01,1.87-1.17.55-.17,1.03-.05,1.42.33Z"/>
  <path class="st1" d="M63.65,23.43c-.11-.02-.2-.07-.28-.13-.81-.63-1.73-1.02-2.77-1.17-1.38-.12-2.3.47-2.77,1.78-.28.77-.21,1.52.2,2.25.42.77.97,1.46,1.63,2.07.14.13.29.27.43.42.96.97,2.12,1.54,3.49,1.7.17-.01.31-.05.43-.12.48-.29.64-.75.48-1.38l-.25-.2s-.42.56-.8.6-1.77-.84-2.18-1.23c-.86-.78-1.56-1.77-2.1-2.76-.24-.42-.23-.83.03-1.22.5-.71,1.15-.89,1.95-.53.11.05.23.1.35.13.83.21,1.28.73,1.35,1.57.04.5.16.98.35,1.45.09.23.26.39.5.47.68,0,.97-.38.88-1.13-.03-.29-.05-.58-.07-.88-.01-.44.07-.85.23-1.23.27-.59.61-1.14,1.02-1.67.19.43.37.88.53,1.35.39,1.11,1.18,1.75,2.38,1.92.18.01.36.03.53.05,1.46.23,2.88.11,4.29-.38.23,1.13.2,2.17.25,3.4.18,4.92.16,9.26-.47,13.41-.08.5-.14.98-.18,1.43-.41,4.65-1.71,9.02-3.89,13.11-.08.14-.17.28-.27.4-.42.53-.87,1.02-1.33,1.45l-.62-.18c-.09-.38-.22-.75-.38-1.12-.16-.31-.22-.65-.2-1.02.02-.26.06-.52.1-.78.1-.55.23-1.1.38-1.67.1-.38.03-.65-.22-.82-.8,1.06-1.21,2.28-1.23,3.67-.01.64.07,1.28.25,1.9.31,1.09,1.06,1.56,2.23,1.4.24,0,.43-.05.57-.18.5-.48.94-.98,1.33-1.52.22-.32.42-.66.58-1,.7-1.38,1.37-2.77,2.02-4.17.47-1.02.79-2.09.98-3.18.09-.48.18-.95.27-1.4.33-1.85.62-3.72.87-5.62.58-4.43.48-11.88.45-14.17s-.06-3.14-.67-4.62c-.38-.27-.78-.27-1.2,0-1.46.89-3.02.98-4.7.27-.17-.09-.31-.18-.43-.28-.67-.6-1.07-1.35-1.2-2.25-.11-.69-.48-1.05-1.12-1.08-.13.07-.24.15-.32.25-.56.84-1.14,1.73-1.68,2.64"/>
  <path class="st1" d="M53.5,4.38v-.05c0-1.42-.27-2.77-.78-4.05-.06,0-.1-.03-.13-.07-.35-.27-.69-.28-1.03-.03-.28.21-.34.45-.18.72l.7.23c.07.21.12.43.15.65.18,1.47.28,2.92.3,4.35.03,1.81.15,3.64.35,5.49.31,2.91.55,5.85.72,8.8,0,.16.02.32.02.48.09,2.72.13,5.45.13,8.17,0,.18-.02.35-.05.52-.17.8-.19,1.63-.08,2.48.04.04.09.07.15.08.17.07.34.12.53.17.23,0,.42-.07.55-.25.09-.37.13-.75.12-1.15-.04-1.4-.07-2.86-.08-4.39,0-.74,0-1.5.03-2.27,0-.11.02-.22.02-.32,0-.91-.02-1.83-.1-2.75-.28-3.49-.86-9.08-1.12-12.56"/>
  <path class="st0" d="M135.21,17.96c-.19.01-.38.15-.41.31s.07.63.11.93c.11,1.02.22,2.04.33,3.06.22,2.24.75,4.4,1.57,6.46,0,0-.15-.01-.18.07s.61,1.57.69,1.62c.08.05.62.07.67-.02s.05-.63,0-.92c-.07-.41-.16-.82-.28-1.23-.84-2.75-1.36-5.54-1.56-8.38-.09-.81-.76-1.91-.95-1.9"/>
  <path class="st0" d="M136.06,12.16c.2-.09.29-.21.29-.34s-.11-.25-.31-.34c-.19-.08-.42-.12-.69-.12-.27.01-.5.06-.7.15-.19.11-.28.22-.27.36,0,.13.1.24.29.33.2.1.44.14.7.13.28,0,.51-.07.69-.17"/>
</svg>